<?xml version="1.0" encoding="UTF-8"?>
<svg xmlns="http://www.w3.org/2000/svg" xmlns:xlink="http://www.w3.org/1999/xlink" width="48px" height="48px" viewBox="0 0 48 48" version="1.1">
<g id="surface1">
<path style=" stroke:none;fill-rule:nonzero;fill:rgb(32.54902%,75.686275%,87.058824%);fill-opacity:1;" d="M 28.292969 23.996094 C 28.292969 26.371094 26.371094 28.292969 24 28.292969 C 21.628906 28.292969 19.707031 26.371094 19.707031 23.996094 C 19.707031 21.625 21.628906 19.703125 24 19.703125 C 26.371094 19.703125 28.292969 21.625 28.292969 23.996094 Z M 28.292969 23.996094 "/>
<path style=" stroke:none;fill-rule:nonzero;fill:rgb(32.54902%,75.686275%,87.058824%);fill-opacity:1;" d="M 9.027344 31.601562 C 9.449219 31.742188 9.871094 31.882812 10.304688 32.007812 C 10.164062 32.566406 10.042969 33.121094 9.929688 33.695312 C 8.945312 38.898438 9.710938 43.023438 12.167969 44.4375 C 14.699219 45.898438 18.957031 44.398438 23.101562 40.773438 C 23.429688 40.480469 23.757812 40.183594 24.085938 39.863281 C 24.496094 40.265625 24.929688 40.648438 25.359375 41.023438 C 29.371094 44.472656 33.335938 45.871094 35.785156 44.457031 C 38.316406 42.992188 39.140625 38.558594 38.070312 33.160156 C 37.984375 32.738281 37.890625 32.3125 37.789062 31.894531 C 38.089844 31.808594 38.378906 31.714844 38.671875 31.621094 C 44.082031 29.832031 48 26.933594 48 23.960938 C 48 21.121094 44.304688 18.367188 39.207031 16.613281 L 39.207031 16.609375 C 38.703125 16.441406 38.195312 16.28125 37.6875 16.132812 C 37.773438 15.785156 37.847656 15.4375 37.921875 15.09375 C 39.074219 9.503906 38.316406 5.015625 35.757812 3.535156 C 33.289062 2.117188 29.269531 3.589844 25.199219 7.132812 C 24.796875 7.480469 24.402344 7.847656 24.027344 8.210938 C 23.773438 7.964844 23.511719 7.726562 23.25 7.488281 C 18.984375 3.703125 14.710938 2.109375 12.148438 3.601562 C 9.695312 5.027344 8.960938 9.253906 9.992188 14.539062 C 10.097656 15.0625 10.210938 15.578125 10.339844 16.105469 C 9.738281 16.273438 9.148438 16.460938 8.597656 16.65625 C 3.589844 18.390625 0 21.128906 0 23.960938 C 0 26.886719 3.824219 29.820312 9.027344 31.601562 Z M 21.777344 39.238281 C 20.230469 40.65625 18.441406 41.777344 16.488281 42.550781 C 15.449219 43.046875 14.25 43.09375 13.179688 42.671875 C 11.691406 41.808594 11.070312 38.5 11.914062 34.046875 C 12.019531 33.523438 12.128906 32.996094 12.261719 32.480469 C 14.359375 32.929688 16.476562 33.238281 18.625 33.398438 C 19.867188 35.152344 21.21875 36.824219 22.675781 38.402344 C 22.375 38.695312 22.074219 38.976562 21.777344 39.238281 Z M 33.683594 21.636719 C 33.246094 20.808594 32.792969 19.988281 32.324219 19.179688 C 31.863281 18.382812 31.386719 17.597656 30.890625 16.816406 C 32.398438 17.007812 33.84375 17.257812 35.195312 17.566406 C 34.761719 18.949219 34.257812 20.308594 33.683594 21.636719 Z M 33.703125 26.304688 C 34.300781 27.664062 34.828125 29.042969 35.285156 30.457031 C 33.832031 30.785156 32.363281 31.039062 30.878906 31.207031 C 31.890625 29.613281 32.832031 27.980469 33.703125 26.304688 Z M 32.617188 23.972656 C 31.359375 26.558594 29.925781 29.058594 28.324219 31.453125 C 26.929688 31.554688 25.476562 31.601562 24.003906 31.601562 C 22.53125 31.601562 21.109375 31.554688 19.730469 31.46875 C 18.101562 29.09375 16.65625 26.601562 15.40625 24.007812 L 15.402344 24.007812 C 16.644531 21.417969 18.078125 18.925781 19.699219 16.554688 C 22.5625 16.34375 25.441406 16.34375 28.304688 16.554688 C 29.101562 17.738281 29.863281 18.945312 30.585938 20.183594 C 31.304688 21.421875 31.980469 22.6875 32.617188 23.972656 Z M 15.664062 19.199219 C 15.203125 19.992188 14.753906 20.808594 14.332031 21.632812 C 13.765625 20.296875 13.265625 18.933594 12.832031 17.546875 C 14.183594 17.246094 15.617188 17.003906 17.105469 16.816406 C 16.613281 17.59375 16.125 18.390625 15.664062 19.199219 Z M 14.335938 26.378906 C 14.765625 27.203125 15.207031 28.019531 15.675781 28.824219 C 16.152344 29.640625 16.640625 30.457031 17.15625 31.253906 C 15.695312 31.09375 14.242188 30.859375 12.804688 30.550781 C 13.21875 29.199219 13.734375 27.804688 14.335938 26.378906 Z M 24.074219 36.960938 C 23.074219 35.875 22.125 34.738281 21.234375 33.558594 C 23.105469 33.632812 24.980469 33.632812 26.851562 33.546875 C 25.988281 34.734375 25.0625 35.875 24.074219 36.960938 Z M 36.328125 39.777344 C 36.242188 40.925781 35.679688 41.988281 34.78125 42.707031 C 33.292969 43.570312 30.113281 42.445312 26.683594 39.503906 C 26.277344 39.152344 25.882812 38.792969 25.492188 38.425781 C 26.925781 36.84375 28.246094 35.164062 29.449219 33.398438 C 31.601562 33.222656 33.734375 32.894531 35.84375 32.414062 C 35.9375 32.800781 36.019531 33.183594 36.097656 33.558594 C 36.554688 35.601562 36.632812 37.707031 36.328125 39.777344 Z M 37.144531 18.0625 C 37.632812 18.203125 38.101562 18.355469 38.550781 18.503906 C 42.917969 20.003906 45.984375 22.234375 45.984375 23.941406 C 45.984375 25.78125 42.710938 28.152344 38.035156 29.699219 C 37.773438 29.78125 37.511719 29.867188 37.238281 29.941406 C 36.578125 27.894531 35.777344 25.898438 34.847656 23.960938 C 35.746094 22.046875 36.507812 20.078125 37.144531 18.0625 Z M 26.519531 8.652344 C 30.011719 5.617188 33.261719 4.425781 34.742188 5.277344 C 36.328125 6.1875 36.9375 9.863281 35.945312 14.691406 C 35.882812 15.003906 35.808594 15.316406 35.726562 15.628906 C 33.648438 15.15625 31.539062 14.824219 29.417969 14.632812 C 28.199219 12.886719 26.867188 11.222656 25.425781 9.652344 C 25.789062 9.308594 26.144531 8.980469 26.519531 8.652344 Z M 24.019531 11.089844 C 25.003906 12.15625 25.933594 13.28125 26.792969 14.445312 C 24.9375 14.359375 23.074219 14.359375 21.214844 14.445312 C 22.132812 13.234375 23.082031 12.113281 24.019531 11.089844 Z M 13.144531 5.34375 C 14.71875 4.425781 18.214844 5.738281 21.898438 9 C 22.132812 9.207031 22.367188 9.433594 22.613281 9.65625 C 21.160156 11.222656 19.816406 12.882812 18.589844 14.632812 C 16.472656 14.820312 14.367188 15.148438 12.289062 15.609375 C 12.167969 15.128906 12.066406 14.640625 11.960938 14.152344 C 11.078125 9.617188 11.660156 6.195312 13.144531 5.34375 Z M 9.253906 18.558594 C 9.789062 18.371094 10.332031 18.203125 10.875 18.042969 C 11.511719 20.078125 12.28125 22.070312 13.171875 24.007812 C 12.273438 25.964844 11.492188 27.988281 10.847656 30.050781 L 10.847656 30.054688 C 10.457031 29.941406 10.066406 29.820312 9.683594 29.6875 C 7.6875 29.058594 5.417969 28.066406 3.777344 26.765625 C 2.832031 26.109375 2.195312 25.097656 2.015625 23.960938 C 2.015625 22.242188 4.976562 20.050781 9.253906 18.558594 Z M 9.253906 18.558594 "/>
</g>
</svg>
